<svg xmlns="http://www.w3.org/2000/svg" width="29.749" height="29.768" viewBox="0 0 29.749 29.768">
  <path id="Path_3753" data-name="Path 3753" d="M8428.885,1397.244a14.69,14.69,0,0,0-.791-4.79c-.03-.089-.072-.174-.107-.261a10.82,10.82,0,0,0-.986-2.176.385.385,0,0,1,.043-.5,9.015,9.015,0,0,0,1.471-2.824,13.6,13.6,0,0,0,.38-3.9c0-.264-.136-.157-.248-.116q-2.547.922-5.093,1.847c-.34.123-.682.239-1.017.373a.413.413,0,0,1-.421-.043,14.586,14.586,0,0,0-15.57-.072.683.683,0,0,1-.68.069c-1.97-.728-3.946-1.439-5.921-2.154-.1-.035-.2-.055-.3-.082v2.4a5.263,5.263,0,0,1,.188.992,8.584,8.584,0,0,0,1.647,3.515.412.412,0,0,1,.029.545,12.214,12.214,0,0,0-1.2,2.82h0a13.894,13.894,0,0,0-.6,3.005c-.01.088.035.193-.062.262v9.14a21.716,21.716,0,0,1,2.129.513,38.333,38.333,0,0,1,8.383,3.212,28.509,28.509,0,0,1,4.043,2.646c.05.038.123.061.126.142h.114a8.581,8.581,0,0,1,1.249-.974,24.47,24.47,0,0,1,2.844-1.822,37.944,37.944,0,0,1,5.239-2.285,49.079,49.079,0,0,1,4.819-1.376c.219-.05.3-.126.3-.372C8428.882,1402.4,8428.888,1399.823,8428.885,1397.244ZM8402.247,1386c.058-.051.143.016.212.041,1.277.462,2.559.917,3.831,1.394a.493.493,0,0,0,.537-.084,11.938,11.938,0,0,1,4.834-2.218,12.1,12.1,0,0,1,9.785,2.04,1.03,1.03,0,0,0,1.122.153c1.165-.463,2.354-.865,3.534-1.291a.3.3,0,0,1,.215-.035,3.036,3.036,0,0,1-.307.867,9.916,9.916,0,0,1-2.434,3.062c-.85.778-1.751,1.5-2.632,2.239-.1.085-.194.18-.291.27a1.405,1.405,0,0,0,.377.061,1.405,1.405,0,0,1-.377-.061,3.193,3.193,0,0,0-.627.533,15.567,15.567,0,0,0-3.3,3.87q-.932,1.616-1.867,3.229c-.187.323-.382.642-.6,1-.339-.582-.646-1.122-.966-1.656-.7-1.164-1.311-2.379-2.079-3.5a17.164,17.164,0,0,0-3.342-3.487c-.825-.7-1.657-1.4-2.474-2.11a11.485,11.485,0,0,1-2.669-3.045,7.257,7.257,0,0,1-.466-1.04C8402.238,1386.157,8402.174,1386.065,8402.247,1386Zm18.276,12.5a2.406,2.406,0,0,1-1.689-.3c-.156-.083-.2-.178-.081-.339.272-.382.531-.773.792-1.163.07-.1.139-.1.236-.037a1.521,1.521,0,0,0,2.384-1.1A2.246,2.246,0,0,1,8420.523,1398.5Zm-14.155-2.933a1.56,1.56,0,0,0,.812,1.223,1.4,1.4,0,0,0,1.521-.117c.128-.085.187-.052.256.037a12.754,12.754,0,0,1,.8,1.14c.1.161.071.236-.077.335a2.243,2.243,0,0,1-3.3-1.07A1.97,1.97,0,0,1,8406.368,1395.567Zm19.975,7.992a44.383,44.383,0,0,0-5.084,1.67,32.761,32.761,0,0,0-6.551,3.5c-.085.06-.171.118-.259.176a.158.158,0,0,1-.207,0,24.325,24.325,0,0,0-4.331-2.565,41.22,41.22,0,0,0-7.629-2.746c-.265-.069-.357-.168-.355-.452.015-1.932.011-3.864.006-5.8a12.819,12.819,0,0,1,.583-3.905q.085-.266.168-.532c.215-.449.369-.927.634-1.365.443.366.833.769,1.289,1.092.08-.13.205-.13.329-.128-.124,0-.249,0-.329.128a1.431,1.431,0,0,0,.36.319c.193.139.234.24.049.458a4.484,4.484,0,0,0,1.491,6.972,4.189,4.189,0,0,0,4.276-.227c.212-.13.264-.053.355.105q1.5,2.572,3,5.139c.035.061.05.146.153.166.539-.92,1.073-1.846,1.622-2.762.5-.843.949-1.719,1.476-2.55.107-.17.173-.186.344-.081a4.268,4.268,0,0,0,3.147.589,4.516,4.516,0,0,0,2.512-7.5c-.068-.075-.113-.137-.006-.188.236-.111.348-.373.59-.472l1.25-1.056.395.793h0a13.731,13.731,0,0,1,.836,3.006,12.074,12.074,0,0,1,.142,1.819c0,2.017,0,4.035,0,6.052A.3.3,0,0,1,8426.343,1403.56Z" transform="translate(-8399.395 -1382.291)" fill="#55beff" stroke="#1f2034" stroke-width="0.5"/>
</svg>
