<svg xmlns="http://www.w3.org/2000/svg" width="14.971" height="13.257" viewBox="0 0 14.971 13.257"><g transform="translate(0.25 0.25)"><path d="M508.508,86.1a.853.853,0,0,1-.419-.109l-4.176-2.327-.057-.035a1.284,1.284,0,0,0-.713-.215h-3.266a2.865,2.865,0,0,1-2.862-2.863V76.2a2.866,2.866,0,0,1,2.862-2.863h8.747a2.866,2.866,0,0,1,2.863,2.863v4.3A2.909,2.909,0,0,1,509.4,83.3l-.028,1.955a.863.863,0,0,1-.86.848Zm-3.73-3.925,2.889,1.612.019-1.191a.921.921,0,0,1,.155-.514.937.937,0,0,1,.742-.39,1.183,1.183,0,0,0,1.182-1.182V76.2a1.143,1.143,0,0,0-1.142-1.142h-8.747a1.142,1.142,0,0,0-1.141,1.142v4.345a1.142,1.142,0,0,0,1.141,1.142h3.266A3,3,0,0,1,504.778,82.173Z" transform="translate(-497.015 -73.341)" fill="#f44268" stroke="#28253d" stroke-miterlimit="10" stroke-width="0.5"/></g></svg>