<svg xmlns="http://www.w3.org/2000/svg" width="24.991" height="25" viewBox="0 0 24.991 25"><g transform="translate(-734.912 -2638.29)"><path d="M759.908,2642.108a.916.916,0,0,1-.974.6c-1.317-.02-2.635-.007-3.952-.007h-.26a3.664,3.664,0,0,1-7.145,0h-.3q-5.709,0-11.418,0a.894.894,0,0,1-.746-.277.772.772,0,0,1,.358-1.242,1.469,1.469,0,0,1,.41-.043q5.7,0,11.393,0h.3a3.764,3.764,0,0,1,3.421-2.85,3.717,3.717,0,0,1,3.711,2.85h.259c1.3,0,2.6.013,3.9-.007a.99.99,0,0,1,1.04.583Zm-8.761-2.252a2.073,2.073,0,1,0,0,4.147,2.073,2.073,0,0,0,0-4.147Z" transform="translate(-0.004)" fill="#fff"/><path d="M750.632,2677.516a9.238,9.238,0,0,1-1.289-.479,3.454,3.454,0,0,1-1.7-2.162c-.018-.061-.04-.121-.065-.2h-.318q-5.7,0-11.391,0a1.4,1.4,0,0,1-.454-.061.773.773,0,0,1,.248-1.5c.089,0,.179,0,.268,0q5.672,0,11.343,0c.227,0,.327-.051.4-.288a3.629,3.629,0,0,1,6.961.045l.068.237h.258c1.317,0,2.635.015,3.952-.007a.929.929,0,0,1,1,.6v.391a.99.99,0,0,1-1.041.583c-1.3-.019-2.6-.006-3.9-.006H754.7c-.026.074-.046.127-.062.182a3.522,3.522,0,0,1-1.926,2.3,8.4,8.4,0,0,1-1.105.358Zm.5-1.555a2.073,2.073,0,1,0-2.059-2.087A2.074,2.074,0,0,0,751.127,2675.96Z" transform="translate(-0.001 -14.226)" fill="#fff"/><path d="M759.9,2658.111a.96.96,0,0,1-1.007.592c-3.782-.011-7.564-.007-11.346-.007h-.287a3.665,3.665,0,0,1-7.144,0h-.256c-1.375,0-2.749,0-4.124,0a.782.782,0,1,1,.026-1.561q2.038,0,4.075,0h.284a3.648,3.648,0,0,1,7.119,0h.282c3.79,0,7.581.006,11.371-.007a.959.959,0,0,1,1.007.593Zm-16.223,1.876a2.071,2.071,0,1,0-2.075-2.078A2.071,2.071,0,0,0,743.681,2659.986Z" transform="translate(0 -7.12)" fill="#fff"/></g></svg>