<svg xmlns="http://www.w3.org/2000/svg" width="28.38" height="25.5" viewBox="0 0 28.38 25.5"><g transform="translate(739.692 -102.585)"><path d="M-711.565,127.338a.717.717,0,0,1-.778.5q-13.17,0-26.34-.005a1.175,1.175,0,0,1-.424-.07.56.56,0,0,1-.32-.6.584.584,0,0,1,.6-.494c.4-.014.8,0,1.236,0V126.3q0-10.422,0-20.843a2.535,2.535,0,0,1,.958-2.12,2.445,2.445,0,0,1,1.573-.5q5.292,0,10.585,0a2.389,2.389,0,0,1,2.444,1.845,3.308,3.308,0,0,1,.079.835q.008,5.129,0,10.258v.373h.786a2.76,2.76,0,0,1,2.9,2.907c0,.49-.01.98,0,1.469a1.933,1.933,0,0,0,1.5,1.869,1.891,1.891,0,0,0,2.143-1.051,2.21,2.21,0,0,0,.2-.89c.015-2.6.008-5.206.007-7.809a.738.738,0,0,0-.016-.089,2.388,2.388,0,0,1-2.523.08,2.269,2.269,0,0,1-1.048-1.3,2.377,2.377,0,0,1,1.828-3.046l-3.393-3.873a.2.2,0,0,1,.018-.282l.576-.508a.2.2,0,0,1,.292.029v0q2.2,2.518,4.414,5.031a3.9,3.9,0,0,1,1.014,2.68c0,3.02,0,6.041,0,9.061a3.075,3.075,0,0,1-2.68,3.158,3.083,3.083,0,0,1-3.476-2.746c-.046-.7-.012-1.4-.051-2.093a1.476,1.476,0,0,0-1.377-1.4c-.358-.028-.719,0-1.1,0v9.319h.314q4.612,0,9.224,0a.8.8,0,0,1,.815.42Zm-11.55-.689v-1.221q0-10,0-20a1.278,1.278,0,0,0-1.408-1.42q-5.251,0-10.5,0a1.957,1.957,0,0,0-.458.038,1.293,1.293,0,0,0-.95,1.433q0,10.434,0,20.868v.3Zm8.515-16.05a1.163,1.163,0,0,0-1.184-1.159,1.178,1.178,0,0,0-1.168,1.183,1.2,1.2,0,0,0,1.191,1.167A1.182,1.182,0,0,0-714.6,110.6Z" fill="#fff" stroke="#fff" stroke-miterlimit="10" stroke-width="0.5"/><path d="M-682.67,139.63h4.486c.544,0,.724.18.724.723q0,2.908,0,5.817c0,.522-.188.708-.716.708h-9c-.531,0-.707-.176-.707-.712q0-2.908,0-5.817c0-.551.171-.72.724-.72Zm4.135,1.078h-8.276V145.8h8.276Z" transform="translate(-47.013 -33.553)" fill="#fff" stroke="#fff" stroke-miterlimit="10" stroke-width="0.453"/></g></svg>