<svg xmlns="http://www.w3.org/2000/svg" width="26.544" height="26.583" viewBox="0 0 26.544 26.583"><g transform="translate(0 0)"><path d="M4288.684,85.271h-8c-.163-.015-.325-.037-.488-.042a15.008,15.008,0,0,1-3.145-.319,6.809,6.809,0,0,1-4.812-3.841,9.56,9.56,0,0,1-.8-4.042c-.03-2.865-.056-5.73-.042-8.6a17.318,17.318,0,0,1,.349-4.1,6.8,6.8,0,0,1,4.212-4.95,10.247,10.247,0,0,1,3.79-.645c2.7-.029,5.4-.052,8.1-.042a20.146,20.146,0,0,1,4.24.3,6.805,6.805,0,0,1,5.292,4.547,10.937,10.937,0,0,1,.543,3.731c.01,3.064.018,6.129-.006,9.193a17.883,17.883,0,0,1-.211,2.609,6.906,6.906,0,0,1-2.459,4.409,7.926,7.926,0,0,1-4.68,1.684C4289.943,85.208,4289.313,85.235,4288.684,85.271Zm-4-2.351v-.041c.7,0,1.4.021,2.1,0,1.513-.055,3.038-.035,4.535-.225a4.335,4.335,0,0,0,3.925-3.478,11.612,11.612,0,0,0,.282-2.519q.073-3.7.046-7.4a35.448,35.448,0,0,0-.2-3.859,4.4,4.4,0,0,0-3.7-4.008,15.724,15.724,0,0,0-2.811-.254q-3.74-.055-7.48-.012a26.166,26.166,0,0,0-3.466.223,4.362,4.362,0,0,0-3.819,3.618,14.8,14.8,0,0,0-.257,2.654q-.069,3.219-.039,6.44c.016,1.487.054,2.979.2,4.457a4.4,4.4,0,0,0,2.239,3.546,5.746,5.746,0,0,0,2.709.716C4280.857,82.84,4282.77,82.873,4284.682,82.92Z" transform="translate(-4271.394 -58.687)" fill="#cb39a4"/><path d="M4280.95,75.081a6.833,6.833,0,1,1,6.84,6.835A6.837,6.837,0,0,1,4280.95,75.081Zm6.834,4.428a4.427,4.427,0,1,0-4.427-4.42A4.414,4.414,0,0,0,4287.785,79.509Z" transform="translate(-4274.499 -61.795)" fill="#cb39a4"/><path d="M4300.867,65.5a1.591,1.591,0,0,1-.074,3.182,1.591,1.591,0,1,1,.074-3.182Z" transform="translate(-4280.439 -60.899)" fill="#cb39a4"/></g></svg>