<svg xmlns="http://www.w3.org/2000/svg" width="26.58" height="26.583" viewBox="0 0 26.58 26.583"><path d="M4375.688,86.974h-1.558a1.417,1.417,0,0,0-.2-.043,12.643,12.643,0,0,1-5.8-1.828,13.111,13.111,0,0,1-6.307-9.131c-.094-.5-.14-1.005-.207-1.508V72.906c.016-.092.034-.183.047-.276.083-.572.131-1.151.253-1.715a13.284,13.284,0,1,1,22.967,11.528,13.046,13.046,0,0,1-7.687,4.323C4376.7,86.857,4376.192,86.906,4375.688,86.974Zm-.769-24.446A11.157,11.157,0,1,0,4386.069,73.7,11.195,11.195,0,0,0,4374.92,62.528Z" transform="translate(-4361.619 -60.392)" fill="#fff"/><path d="M4374.481,70.784a26.476,26.476,0,0,1,7.272.843c.777.222,1.536.521,2.289.82a1.036,1.036,0,0,1,.593,1.367,1.049,1.049,0,0,1-1.394.591,17.284,17.284,0,0,0-3.1-.986,23.155,23.155,0,0,0-5.155-.481c-1.363.027-2.726.156-4.089.234a2.088,2.088,0,0,1-.616-.024,1.039,1.039,0,0,1-.76-1.052,1.024,1.024,0,0,1,.837-.99c.545-.092,1.1-.158,1.647-.2C4372.975,70.845,4373.952,70.81,4374.481,70.784Z" transform="translate(-4363.681 -63.103)" fill="#fff"/><path d="M4374.544,76.425a23.356,23.356,0,0,1,7.75,1.073c.383.134.761.284,1.129.454a1.045,1.045,0,0,1,.541,1.35,1.062,1.062,0,0,1-1.343.609c-.861-.281-1.708-.616-2.583-.834a18.327,18.327,0,0,0-4.862-.49c-1.226.029-2.449.129-3.673.214a1.121,1.121,0,0,1-1.309-.755,1.07,1.07,0,0,1,1-1.364C4372.5,76.568,4373.811,76.48,4374.544,76.425Z" transform="translate(-4363.845 -64.575)" fill="#fff"/><path d="M4374.907,83.968c-1.033.081-2.068.149-3.1.247a1.079,1.079,0,0,1-1.242-1.445,1.03,1.03,0,0,1,.884-.669,25.5,25.5,0,0,1,7.443.1,13.829,13.829,0,0,1,3.294.977,1.059,1.059,0,0,1,.268,1.846,1.121,1.121,0,0,1-1.128.109,22.473,22.473,0,0,0-2.14-.691A20.478,20.478,0,0,0,4374.907,83.968Z" transform="translate(-4363.932 -65.998)" fill="#fff"/></svg>