<svg xmlns="http://www.w3.org/2000/svg" width="29.021" height="23.825" viewBox="0 0 29.021 23.825"><g transform="translate(0 0)"><g transform="translate(0 0)"><path d="M4189.719,80.8a6.414,6.414,0,0,1-2.853-2.294,12.643,12.643,0,0,1-.8-1.51.943.943,0,0,1,.128-1.1c-.35-.412-.721-.8-1.031-1.225a6.32,6.32,0,0,1-1.18-3.354c-.042-.616.113-1.1.684-1.27a20.964,20.964,0,0,1-.585-2.188,6.1,6.1,0,0,1,.849-4.148.9.9,0,0,1,1.5-.082,15.587,15.587,0,0,0,2.414,2.314,15.271,15.271,0,0,0,7.146,3c.074.011.15.01.238.015.033-.4.042-.8.1-1.2a6.508,6.508,0,0,1,5.34-5.386,6.349,6.349,0,0,1,5.618,1.607,1.425,1.425,0,0,0,.941.263,4.1,4.1,0,0,0,2.184-.573,1.384,1.384,0,0,1,.644-.183.873.873,0,0,1,.838.94,5.214,5.214,0,0,1-1.029,2.954c-.379.545-.854,1.023-1.273,1.541a.758.758,0,0,0-.182.411,16.56,16.56,0,0,1-7.839,14.178,15.959,15.959,0,0,1-7.213,2.465,17.1,17.1,0,0,1-10.442-2.159q-.3-.168-.588-.355a.886.886,0,0,1-.406-1.061.862.862,0,0,1,.968-.627,10.826,10.826,0,0,0,5.115-.673C4189.223,81.019,4189.438,80.922,4189.719,80.8ZM4186,65.876a4.138,4.138,0,0,0-.1,1.8,4.544,4.544,0,0,0,1.981,3.12.92.92,0,0,1-.58,1.712c-.415-.023-.827-.087-1.315-.141.216.412.383.807.615,1.16a4.548,4.548,0,0,0,2.844,1.972,1,1,0,0,1,.8.574.9.9,0,0,1-.634,1.25c-.381.1-.773.15-1.195.229.133.157.235.293.354.415a4.817,4.817,0,0,0,3.356,1.511.883.883,0,0,1,.887.677.918.918,0,0,1-.4,1.019,11.735,11.735,0,0,1-3.26,1.757c-.562.2-1.138.347-1.747.529.114.042.2.078.282.1a15.508,15.508,0,0,0,6.365.585,14.465,14.465,0,0,0,8.253-3.607,14.641,14.641,0,0,0,5.044-11.745,1.044,1.044,0,0,1,.447-.934,5.787,5.787,0,0,0,1.591-1.877c-.095,0-.158,0-.222,0-.561.017-1.124.068-1.684.042a2.128,2.128,0,0,1-1.491-.556,4.467,4.467,0,0,0-3.938-1.331,4.632,4.632,0,0,0-4.063,5.5c.176.839-.245,1.307-1.1,1.252A17.076,17.076,0,0,1,4186,65.876Z" transform="translate(-4182.873 -62.257)" fill="#fff"/></g></g></svg>