<svg xmlns="http://www.w3.org/2000/svg" width="20.427" height="16.77" viewBox="0 0 20.427 16.77"><path d="M3550.748,489.473a4.509,4.509,0,0,1-2.007-1.615,9,9,0,0,1-.565-1.062.664.664,0,0,1,.089-.778c-.246-.289-.507-.56-.726-.862a4.461,4.461,0,0,1-.831-2.36c-.029-.434.08-.772.482-.894a14.466,14.466,0,0,1-.412-1.54,4.294,4.294,0,0,1,.6-2.92.635.635,0,0,1,1.059-.058,10.909,10.909,0,0,0,1.7,1.629,10.756,10.756,0,0,0,5.029,2.115c.053.008.107.007.169.01.022-.285.029-.566.069-.842a4.581,4.581,0,0,1,3.758-3.792,4.476,4.476,0,0,1,3.956,1.131,1,1,0,0,0,.662.185,2.887,2.887,0,0,0,1.538-.4.974.974,0,0,1,.454-.128.614.614,0,0,1,.589.661,3.674,3.674,0,0,1-.725,2.08c-.266.384-.6.72-.9,1.085a.537.537,0,0,0-.128.289,11.657,11.657,0,0,1-5.518,9.98,11.24,11.24,0,0,1-5.079,1.735,12.045,12.045,0,0,1-7.351-1.519c-.14-.08-.278-.163-.413-.25a.625.625,0,0,1-.286-.748.606.606,0,0,1,.681-.442,7.606,7.606,0,0,0,3.6-.474C3550.4,489.626,3550.551,489.557,3550.748,489.473Zm-2.615-10.507a2.921,2.921,0,0,0-.071,1.267,3.194,3.194,0,0,0,1.395,2.2.647.647,0,0,1-.408,1.205c-.292-.016-.583-.061-.926-.1.152.29.27.568.434.816a3.2,3.2,0,0,0,2,1.388.707.707,0,0,1,.563.4.634.634,0,0,1-.446.88c-.267.069-.544.106-.841.162.093.11.166.2.249.292a3.4,3.4,0,0,0,2.363,1.063.621.621,0,0,1,.623.476.646.646,0,0,1-.285.718,8.255,8.255,0,0,1-2.294,1.237c-.4.138-.8.244-1.229.373.08.03.139.055.2.073a10.915,10.915,0,0,0,4.481.412,10.183,10.183,0,0,0,5.809-2.538,10.307,10.307,0,0,0,3.551-8.267.734.734,0,0,1,.315-.658,4.085,4.085,0,0,0,1.12-1.321c-.067,0-.113,0-.156,0-.4.012-.792.048-1.185.03a1.5,1.5,0,0,1-1.05-.391,3.146,3.146,0,0,0-2.772-.937,3.26,3.26,0,0,0-2.86,3.873c.123.591-.172.921-.776.881a12.019,12.019,0,0,1-7.8-3.534Z" transform="translate(-3545.93 -476.419)" fill="#55beff"/></svg>