<svg xmlns="http://www.w3.org/2000/svg" width="21.341" height="24.607" viewBox="0 0 21.341 24.607"><g transform="translate(0 0)"><g transform="translate(0 0)"><g transform="translate(4.273)"><path d="M4466.913,75.915a6.568,6.568,0,1,1,6.568-6.569A6.577,6.577,0,0,1,4466.913,75.915Zm0-10.929a4.361,4.361,0,1,0,4.361,4.361A4.366,4.366,0,0,0,4466.913,64.985Z" transform="translate(-4460.345 -62.778)" fill="#fff"/></g><g transform="translate(0 14.826)"><path d="M4475.6,89.834a1.1,1.1,0,0,1-1.1-1.1V87.9a5.647,5.647,0,0,0-5.64-5.641h-5.646a5.646,5.646,0,0,0-5.639,5.641v.829a1.1,1.1,0,0,1-2.208,0V87.9a7.856,7.856,0,0,1,7.847-7.848h5.646a7.857,7.857,0,0,1,7.847,7.848v.829A1.1,1.1,0,0,1,4475.6,89.834Z" transform="translate(-4455.366 -80.053)" fill="#fff"/></g></g></g></svg>