<svg xmlns="http://www.w3.org/2000/svg" width="19.49" height="19.489" viewBox="0 0 19.49 19.489"><g transform="translate(-2228.905 -3916.414)"><g transform="translate(2228.905 3916.414)"><path d="M2238.65,3935.9a9.744,9.744,0,1,1,9.745-9.744A9.755,9.755,0,0,1,2238.65,3935.9Zm0-17.9a8.151,8.151,0,1,0,8.151,8.151A8.159,8.159,0,0,0,2238.65,3918.008Z" transform="translate(-2228.905 -3916.414)" fill="#8d97ef"/></g><g transform="translate(2233.899 3916.414)"><path d="M2238.319,3935.9c-2.708,0-4.751-4.189-4.751-9.744s2.043-9.745,4.751-9.745,4.75,4.189,4.75,9.745S2241.028,3935.9,2238.319,3935.9Zm0-17.9c-1.49,0-3.158,3.485-3.158,8.151s1.667,8.15,3.158,8.15,3.158-3.486,3.158-8.15S2239.81,3918.008,2238.319,3918.008Z" transform="translate(-2233.568 -3916.414)" fill="#8d97ef"/></g><g transform="translate(2228.905 3921.407)"><path d="M2238.65,3930.578c-5.556,0-9.745-2.042-9.745-4.75s4.189-4.751,9.745-4.751,9.745,2.043,9.745,4.751S2244.2,3930.578,2238.65,3930.578Zm0-7.908c-4.666,0-8.151,1.667-8.151,3.158s3.485,3.158,8.151,3.158,8.151-1.667,8.151-3.158S2243.316,3922.67,2238.65,3922.67Z" transform="translate(-2228.905 -3921.077)" fill="#8d97ef"/></g></g></svg>