<svg xmlns="http://www.w3.org/2000/svg" width="27" height="19.453" viewBox="0 0 27 19.453"><g transform="translate(0 0)"><path d="M3239.617,480.528c-.045-.254-.09-.515-.155-.769A5.953,5.953,0,0,0,3234,475.33c-.138-.006-.274-.013-.4-.013h-4.343q-5.243,0-10.487.007a5.825,5.825,0,0,0-5.276,3,5.735,5.735,0,0,0-.8,3.013v.124c-.006,2.433-.013,4.865,0,7.292a5.974,5.974,0,0,0,4.683,5.876,6.175,6.175,0,0,0,1.363.137q4.3.009,8.583.006h6.3a5.916,5.916,0,0,0,5.915-4.695c.046-.2.072-.4.1-.607l.04-.248.006-8.249Zm-1.2,8.544-.033.215c-.026.163-.052.332-.091.5a4.692,4.692,0,0,1-4.683,3.724q-7.434,0-14.868-.007a4.838,4.838,0,0,1-1.083-.11,4.66,4.66,0,0,1-3.7-4.636c-.013-2.433-.007-4.859,0-7.292v-.117a4.529,4.529,0,0,1,.613-2.367,4.6,4.6,0,0,1,4.2-2.387q3.071-.009,6.143-.006h4.337l4.343.006c.117,0,.228,0,.345.007a4.685,4.685,0,0,1,4.3,3.482c.052.215.092.444.13.665l.052.287Z" transform="translate(-3212.682 -475.317)" fill="#f44268"/><path d="M3229.337,484.349a.877.877,0,0,1-.542.781c-1.726.836-3.462,1.661-5.193,2.485l-.4.19a1.143,1.143,0,0,1-.494.13.711.711,0,0,1-.38-.109.872.872,0,0,1-.358-.8v-5.48a.787.787,0,0,1,1.232-.766l.607.309c1.666.842,3.337,1.688,5,2.54A.966.966,0,0,1,3229.337,484.349Z" transform="translate(-3211.877 -474.557)" fill="#f44268"/></g></svg>