<svg xmlns="http://www.w3.org/2000/svg" width="32.485" height="23.406" viewBox="0 0 32.485 23.406"><g transform="translate(0 0)"><g transform="translate(0 0)"><path d="M4124.389,68.81c-.055-.306-.109-.62-.189-.926a7.158,7.158,0,0,0-6.576-5.328c-.163-.007-.328-.016-.486-.016h-5.226q-6.308,0-12.616.008a7.007,7.007,0,0,0-6.348,3.609,6.893,6.893,0,0,0-.958,3.625v.149c-.008,2.927-.016,5.853,0,8.773a7.185,7.185,0,0,0,5.635,7.069,7.409,7.409,0,0,0,1.639.165q5.167.012,10.326.008h7.579a7.118,7.118,0,0,0,7.117-5.649c.055-.243.086-.486.125-.73l.048-.3.007-9.925Zm-1.444,10.279-.039.259c-.031.2-.062.4-.11.6a5.643,5.643,0,0,1-5.633,4.48q-8.946,0-17.89-.007a5.777,5.777,0,0,1-1.3-.134,5.607,5.607,0,0,1-4.457-5.578c-.015-2.927-.008-5.846,0-8.773v-.141a5.471,5.471,0,0,1,.738-2.848,5.534,5.534,0,0,1,5.053-2.872q3.7-.011,7.391-.007h5.218l5.226.007c.141,0,.275,0,.416.008a5.635,5.635,0,0,1,5.17,4.19c.063.259.11.534.157.8l.063.345Z" transform="translate(-4091.982 -62.541)" fill="#fff"/><path d="M4117.821,76.609a1.269,1.269,0,0,1-.785,1.13c-2.5,1.208-5.006,2.4-7.51,3.593l-.58.275a1.643,1.643,0,0,1-.714.188,1.019,1.019,0,0,1-.549-.157,1.257,1.257,0,0,1-.518-1.153V72.561a1.138,1.138,0,0,1,1.781-1.106l.878.447c2.409,1.216,4.826,2.44,7.227,3.672A1.4,1.4,0,0,1,4117.821,76.609Z" transform="translate(-4095.944 -64.816)" fill="#fff"/></g></g></svg>