<svg xmlns="http://www.w3.org/2000/svg" width="28.986" height="21.429" viewBox="0 0 28.986 21.429"><g transform="translate(0 0)"><path d="M4477.523,83.232a5.719,5.719,0,0,1-.513.661,12.872,12.872,0,0,1-6.3,3.542,17.82,17.82,0,0,1-1.99.223.893.893,0,0,1-.826-.4c-.678-.871-1.367-1.732-2.042-2.6a.4.4,0,0,0-.4-.171,22.169,22.169,0,0,1-4.8,0,.461.461,0,0,0-.475.2c-.655.853-1.333,1.687-1.989,2.539a1.047,1.047,0,0,1-.923.434,10.815,10.815,0,0,1-6.048-2.027c-.841-.579-1.59-1.293-2.375-1.953a.855.855,0,0,1-.3-.76,36.848,36.848,0,0,1,2.637-11.748c.3-.7.694-1.357,1.061-2.026a1.044,1.044,0,0,1,.339-.367,16.437,16.437,0,0,1,5.516-2.391,10.635,10.635,0,0,1,1.176-.15.834.834,0,0,1,.869.5c.409.786.826,1.568,1.226,2.358a.34.34,0,0,0,.368.216q1.3-.019,2.6,0a.342.342,0,0,0,.365-.222c.393-.772.806-1.535,1.2-2.308a.91.91,0,0,1,.957-.55,11.24,11.24,0,0,1,4.031,1.129c.858.407,1.681.888,2.507,1.358a1.345,1.345,0,0,1,.449.453,21.763,21.763,0,0,1,2.433,6.059,42.739,42.739,0,0,1,1.2,7.127,2.382,2.382,0,0,0,.049.245ZM4459.67,69.517c-.228-.434-.453-.826-.638-1.235a.385.385,0,0,0-.521-.251,14.788,14.788,0,0,0-4.763,2.018.666.666,0,0,0-.234.27c-.454.972-.967,1.923-1.331,2.928a37.469,37.469,0,0,0-1.894,9.052.7.7,0,0,0,.3.721c.193.136.357.309.542.455a10.832,10.832,0,0,0,5.386,2.45.725.725,0,0,0,.8-.328c.335-.485.722-.934,1.108-1.425-.451-.114-.86-.209-1.265-.32a14.908,14.908,0,0,1-4.233-1.839.853.853,0,1,1,.855-1.474c.659.363,1.311.749,2,1.046a17.24,17.24,0,0,0,5.6,1.269,21.45,21.45,0,0,0,5.773-.328,14.364,14.364,0,0,0,5.135-1.989.815.815,0,0,1,1.021.078.845.845,0,0,1-.147,1.372A14.45,14.45,0,0,1,4469.1,83.8c-.473.135-.954.248-1.464.379.267.341.509.651.754.961.722.917.722.916,1.867.67a11.379,11.379,0,0,0,5.4-2.976.475.475,0,0,0,.108-.346,40.894,40.894,0,0,0-1.112-6.685,20.9,20.9,0,0,0-2.117-5.492.812.812,0,0,0-.287-.295c-.659-.367-1.314-.738-1.991-1.068a10.919,10.919,0,0,0-2.783-.919c-.1-.019-.286-.009-.321.052-.267.463-.505.941-.764,1.434.16.03.278.055.4.075a18.172,18.172,0,0,1,4.674,1.382.855.855,0,1,1-.694,1.552,19.837,19.837,0,0,0-10.889-1.311,16.49,16.49,0,0,0-4.658,1.333.845.845,0,1,1-.693-1.54c.412-.186.831-.356,1.254-.515A19.615,19.615,0,0,1,4459.67,69.517Z" transform="translate(-4448.537 -66.235)" fill="#fff"/><path d="M4475.543,79.994a3.466,3.466,0,0,1-1.016,2.528,2.834,2.834,0,0,1-4.175-.127,3.594,3.594,0,0,1-.156-4.537,2.88,2.88,0,0,1,4.979.612,10.314,10.314,0,0,1,.446,1.5Zm-4.385.038a1.871,1.871,0,0,0,.447,1.219,1.156,1.156,0,0,0,1.767.035,1.905,1.905,0,0,0-.018-2.527,1.151,1.151,0,0,0-1.728.029A1.866,1.866,0,0,0,4471.158,80.033Z" transform="translate(-4453.999 -68.963)" fill="#fff"/><path d="M4458.579,80.034a3.406,3.406,0,0,1,1.122-2.595,2.816,2.816,0,0,1,4.069.234,3.59,3.59,0,0,1-.051,4.773,2.876,2.876,0,0,1-4.776-.859,10.356,10.356,0,0,1-.445-1.531Zm4.385.018a1.889,1.889,0,0,0-.439-1.234,1.155,1.155,0,0,0-1.727-.091,1.891,1.891,0,0,0,.043,2.645,1.139,1.139,0,0,0,1.544.006A1.8,1.8,0,0,0,4462.964,80.052Z" transform="translate(-4451.137 -68.96)" fill="#fff"/></g></svg>