<svg xmlns="http://www.w3.org/2000/svg" width="20.728" height="18.631" viewBox="0 0 20.728 18.631"><path d="M3500.388,401.1c.687.179,1.372.328,2.036.541.415.133.534.033.493-.38a3.078,3.078,0,0,1,.008-.67.964.964,0,0,1,.994-.868c.483.024.959.414.877.9a2.565,2.565,0,0,0,1.3,2.652,9.378,9.378,0,0,1,2.443,2.888,3.64,3.64,0,0,1-.114,4.111c-.385.576-.842,1.091-1.278,1.625a1.773,1.773,0,0,1-1.782.766c-.447-.078-.564.119-.558.555.02,1.291,0,1.243,1.272,1.307a2.549,2.549,0,0,0,2.265-.955,2.7,2.7,0,0,1,1.5-.889c1.316-.344,2.624-.726,3.923-1.131.458-.142.515,0,.553.419a1,1,0,0,1-.714,1.183,3.626,3.626,0,0,0-1.725,1.538c-.447.731-.913,1.454-1.411,2.151a3.344,3.344,0,0,1-3,1.5c-2.741-.064-5.485-.015-8.228-.021a5.6,5.6,0,0,1-5.6-5.051c-.088-.811-.077-.825.716-.825,1.306,0,2.612.009,3.917-.006.354,0,.516.051.548.472a1.654,1.654,0,0,0,1.752,1.592c.652.008,1.306-.01,1.959.007.292.007.375-.094.387-.384.062-1.468.07-1.459-1.374-1.473-.364,0-.89.183-1.058-.1-.207-.353.267-.678.479-.976a7.1,7.1,0,0,0,.838-7.013,28.541,28.541,0,0,0-1.251-2.929A.773.773,0,0,1,3500.388,401.1Z" transform="translate(-3493.602 -399.726)" fill="#fcfdfe"/></svg>