<svg xmlns="http://www.w3.org/2000/svg" width="30.934" height="31.011" viewBox="0 0 30.934 31.011">
  <g id="Group_4732" data-name="Group 4732" transform="translate(-14.109 -7.221)">
    <path id="Path_3592" data-name="Path 3592" d="M30.6,38.132c-.943-.35-1.031-1.271-1.358-2.049-.591,0-1.183,0-1.774,0a12.61,12.61,0,0,1-8.93-3.58,12.665,12.665,0,0,1-1.852-16.236c.044-.066.086-.134.145-.225-.072-.068-.145-.133-.214-.2a7.592,7.592,0,0,1-2.033-7.952c.155-.532.415-.663.956-.521a7.481,7.481,0,0,1,4.515,3.23.972.972,0,0,0,.966.495,7.537,7.537,0,0,1,5.467,1.949.648.648,0,0,1,.086,1.062A7.534,7.534,0,0,1,21.262,17a.78.78,0,0,0-.71.455,8.544,8.544,0,0,0-1.1,2.873,5.074,5.074,0,0,0,3.112,5.456,8.921,8.921,0,0,0,9.385-1.372c.915-.718,1.772-1.518,2.734-2.167a12.377,12.377,0,0,1,8.644-2.053,1.814,1.814,0,0,1,1.612,1.955,13.7,13.7,0,0,1-.7,3.528,14.731,14.731,0,0,1-1.906,3.836.627.627,0,0,1-.725.3.573.573,0,0,1-.426-.586,1.3,1.3,0,0,1,.213-.517,13.936,13.936,0,0,0,1.939-4.343c.019-.076.032-.154.053-.254a10.948,10.948,0,0,0-2.969.317,7.818,7.818,0,0,0-4.86,3.393,13,13,0,0,1-2.121,2.491.62.62,0,0,0-.263.659,7.1,7.1,0,0,1,.25,3.389c.112-.022.2-.033.276-.055a13.542,13.542,0,0,0,3.5-1.559c.1-.064.2-.132.307-.191a.619.619,0,0,1,.848.188.6.6,0,0,1-.193.844,17.289,17.289,0,0,1-2.029,1.107c-.92.385-1.884.669-2.834.98a.587.587,0,0,0-.385.32c-.235.452-.5.891-.768,1.323a1.831,1.831,0,0,1-1,.818ZM43.627,22.872c.031-.248.061-.465.084-.683a.644.644,0,0,0-.623-.787A11,11,0,0,0,35.9,22.94a33.28,33.28,0,0,0-3.078,2.353A10.165,10.165,0,0,1,22.4,27.048a6.292,6.292,0,0,1-4.21-6.556,7.826,7.826,0,0,1,1.143-3.358,4.9,4.9,0,0,0,.695-1.875c.039-.327.032-.66.044-.991a.6.6,0,0,1,.594-.656.588.588,0,0,1,.643.606,4.6,4.6,0,0,1,0,.691c-.019.285-.06.568-.094.871a6.516,6.516,0,0,0,4.114-2.109,6.4,6.4,0,0,0-4.307-1.359,2.023,2.023,0,0,1-1.987-1.028A6.052,6.052,0,0,0,16.7,9.127c-.331-.176-.685-.311-1.032-.467a6.306,6.306,0,0,0,.566,4.7,6.5,6.5,0,0,0,1.695,1.972c.472.365.5.63.137,1.115-.024.032-.048.064-.072.1a10.863,10.863,0,0,0-2.145,7.7,8.6,8.6,0,0,0,5.95,7.571,10.171,10.171,0,0,0,7.072-.16c.761-.265.766-.289.471-1.057a.621.621,0,1,1,1.138-.469,3.355,3.355,0,0,1,.083,2.465,5.515,5.515,0,0,0-.2,2.731,4.6,4.6,0,0,0,.551,1.574,5.61,5.61,0,0,0,1.158-5.231,2.084,2.084,0,0,1,.663-2.4c.308-.261.57-.575.854-.867-.516-.451-.626-.7-.417-1.01.368-.552.785-.274,1.185-.006C36.528,23.993,39.76,22.816,43.627,22.872ZM29.156,32.912c-.662.156-1.326.35-2,.461a13.645,13.645,0,0,1-2.06.19,12.271,12.271,0,0,1-2.064-.152c-.663-.107-1.31-.32-2.011-.5a12.249,12.249,0,0,0,7.992,1.9Z" transform="translate(0 0)" fill="#55beff" stroke="#55beff" stroke-width="0.2"/>
    <path id="Path_3593" data-name="Path 3593" d="M181.658,163.688a.608.608,0,0,1,.018-1.216.608.608,0,1,1-.018,1.216Z" transform="translate(-141.674 -131.749)" fill="#55beff" stroke="#55beff" stroke-width="0.2"/>
  </g>
</svg>
