<svg xmlns="http://www.w3.org/2000/svg" width="34.091" height="34.093" viewBox="0 0 34.091 34.093">
  <g id="Group_2612" data-name="Group 2612" transform="translate(0)">
    <g id="Group_1187" data-name="Group 1187" transform="translate(0 0)" opacity="0.99" style="isolation: isolate">
      <path id="Path_2038" data-name="Path 2038" d="M7697.822-516.018a2.344,2.344,0,0,1-2.151-1.417l-5.534-12.807-12.808-5.533a2.33,2.33,0,0,1-1.413-2.254,2.329,2.329,0,0,1,1.6-2.125l29.423-9.835a2.379,2.379,0,0,1,.744-.121,2.3,2.3,0,0,1,1.639.685,2.308,2.308,0,0,1,.56,2.381l-9.833,29.425a2.323,2.323,0,0,1-2.125,1.6Zm-6.047-16.6a1.418,1.418,0,0,1,.737.739l5.255,12.16,9.113-27.267-27.267,9.113Z" transform="translate(-7675.915 550.111)" fill="#fff"/>
    </g>
  </g>
</svg>
