<svg id="Group_2610" data-name="Group 2610" xmlns="http://www.w3.org/2000/svg" width="33.455" height="33.455" viewBox="0 0 33.455 33.455">
  <g id="Group_1183" data-name="Group 1183" transform="translate(11.541 10.781)">
    <g id="Group_1181" data-name="Group 1181">
      <ellipse id="Ellipse_83" data-name="Ellipse 83" cx="1.516" cy="2.286" rx="1.516" ry="2.286" fill="#fff"/>
    </g>
    <g id="Group_1182" data-name="Group 1182" transform="translate(7.346)">
      <ellipse id="Ellipse_84" data-name="Ellipse 84" cx="1.516" cy="2.286" rx="1.516" ry="2.286" fill="#fff"/>
    </g>
  </g>
  <g id="Group_1184" data-name="Group 1184" transform="translate(0 0)">
    <path id="Path_2035" data-name="Path 2035" d="M6373.045-907.03a16.747,16.747,0,0,1-16.727-16.728,16.746,16.746,0,0,1,16.727-16.727,16.746,16.746,0,0,1,16.728,16.727A16.748,16.748,0,0,1,6373.045-907.03Zm0-30.662a13.95,13.95,0,0,0-13.934,13.934,13.951,13.951,0,0,0,13.934,13.935,13.951,13.951,0,0,0,13.935-13.935A13.95,13.95,0,0,0,6373.045-937.692Z" transform="translate(-6356.318 940.485)" fill="#fff"/>
  </g>
  <g id="Group_1185" data-name="Group 1185" transform="translate(7.287 18.191)">
    <path id="Path_2036" data-name="Path 2036" d="M6425.183-783.773a9.768,9.768,0,0,1-9.39-6.925,1.117,1.117,0,0,1,.739-1.4,1.115,1.115,0,0,1,1.4.739,7.546,7.546,0,0,0,7.254,5.349,7.572,7.572,0,0,0,7.265-5.352,1.118,1.118,0,0,1,1.4-.735,1.117,1.117,0,0,1,.736,1.4A9.8,9.8,0,0,1,6425.183-783.773Z" transform="translate(-6415.743 792.146)" fill="#fff"/>
  </g>
</svg>
